<?xml version="1.0" encoding="utf-8"?>
<!-- Generator: Adobe Illustrator 27.5.0, SVG Export Plug-In . SVG Version: 6.00 Build 0)  -->
<svg version="1.1" xmlns="http://www.w3.org/2000/svg" xmlns:xlink="http://www.w3.org/1999/xlink" x="0px" y="0px"
	 viewBox="0 0 750 500" style="enable-background:new 0 0 750 500;" xml:space="preserve">
<g id="BACKGROUND">
</g>
<g id="OBJECTS">
	<g>
		<defs>
			<rect id="SVGID_1_" width="750" height="500"/>
		</defs>
		<clipPath id="SVGID_00000109715059917067286530000018101260051199281831_">
			<use xlink:href="#SVGID_1_"  style="overflow:visible;"/>
		</clipPath>
		<path style="clip-path:url(#SVGID_00000109715059917067286530000018101260051199281831_);fill:#D3D6F0;" d="M62.782-136.591
			h125.344V4.854c0,66.968-54.288,121.256-121.256,121.256h-4.088V-136.591z"/>
		<path style="clip-path:url(#SVGID_00000109715059917067286530000018101260051199281831_);fill:#D3D6F0;" d="M622.416,641.466
			H497.072V500.022c0-66.968,54.288-121.256,121.256-121.256h4.088V641.466z"/>
		<path style="clip-path:url(#SVGID_00000109715059917067286530000018101260051199281831_);fill:#FFD8A1;" d="M-67.739,499.315
			v-62.453H2.736c33.367,0,60.416,27.049,60.416,60.416v2.037H-67.739z"/>
		
			<circle style="clip-path:url(#SVGID_00000109715059917067286530000018101260051199281831_);fill:#D3D6F0;" cx="16.03" cy="360.664" r="15.672"/>
		
			<circle style="clip-path:url(#SVGID_00000109715059917067286530000018101260051199281831_);fill:#D3D6F0;" cx="47.172" cy="329.147" r="15.672"/>
		
			<circle style="clip-path:url(#SVGID_00000109715059917067286530000018101260051199281831_);fill:#D3D6F0;" cx="16.03" cy="329.147" r="15.672"/>
		<g style="clip-path:url(#SVGID_00000109715059917067286530000018101260051199281831_);">
			<circle style="fill:#FFD8A1;" cx="47.172" cy="47.608" r="15.672"/>
			<circle style="fill:#A6AAD9;" cx="16.03" cy="47.608" r="15.672"/>
			<circle style="fill:#D3D6F0;" cx="47.172" cy="16.091" r="15.672"/>
			<circle style="fill:#5557A3;" cx="16.03" cy="16.091" r="15.672"/>
		</g>
		<g style="clip-path:url(#SVGID_00000109715059917067286530000018101260051199281831_);">
			<circle style="fill:#FFD8A1;" cx="172.281" cy="235.692" r="15.672"/>
			<circle style="fill:#A6AAD9;" cx="141.139" cy="235.692" r="15.672"/>
			<circle style="fill:#D3D6F0;" cx="172.281" cy="204.175" r="15.672"/>
			<circle style="fill:#5557A3;" cx="141.139" cy="204.175" r="15.672"/>
		</g>
		<g style="clip-path:url(#SVGID_00000109715059917067286530000018101260051199281831_);">
			<circle style="fill:#D3D6F0;" cx="235.284" cy="483.36" r="15.672"/>
			<circle style="fill:#D3D6F0;" cx="204.142" cy="483.36" r="15.672"/>
			<circle style="fill:#FFD8A1;" cx="235.284" cy="451.843" r="15.672"/>
			<circle style="fill:#5557A3;" cx="204.142" cy="451.843" r="15.672"/>
		</g>
		
			<circle style="clip-path:url(#SVGID_00000109715059917067286530000018101260051199281831_);fill:#A6AAD9;" cx="47.414" cy="235.22" r="15.672"/>
		
			<circle style="clip-path:url(#SVGID_00000109715059917067286530000018101260051199281831_);fill:#D3D6F0;" cx="47.414" cy="203.703" r="15.672"/>
		
			<circle style="clip-path:url(#SVGID_00000109715059917067286530000018101260051199281831_);fill:#FFD8A1;" cx="16.272" cy="203.703" r="15.672"/>
		
			<circle style="clip-path:url(#SVGID_00000109715059917067286530000018101260051199281831_);fill:#5557A3;" cx="46.417" cy="392.831" r="4.776"/>
		<g style="clip-path:url(#SVGID_00000109715059917067286530000018101260051199281831_);">
			
				<rect x="0.42" y="250.862" transform="matrix(-1 -1.224647e-16 1.224647e-16 -1 94.4372 564.1767)" style="fill:#FFD8A1;" width="93.598" height="62.453"/>
			<path style="fill:#FFD8A1;" d="M9.412,259.866c5.659-5.636,13.469-9.111,22.079-9.111c17.295,0,31.32,14.025,31.32,31.32
				c0,8.609-3.476,16.42-9.111,22.079L9.412,259.866z"/>
		</g>
		
			<circle style="clip-path:url(#SVGID_00000109715059917067286530000018101260051199281831_);fill:#FFD8A1;" cx="93.978" cy="282.346" r="31.005"/>
		<polygon style="clip-path:url(#SVGID_00000109715059917067286530000018101260051199281831_);fill:#D3D6F0;" points="
			0.338,125.864 0.338,125.833 62.787,125.833 62.787,188.29 62.772,188.29 		"/>
		<path style="clip-path:url(#SVGID_00000109715059917067286530000018101260051199281831_);fill:#5557A3;" d="M0.201,63.605v-0.03
			h33.185c16.162,0,29.264,13.102,29.264,29.264v33.193h-0.015L0.201,63.605z"/>
		<polygon style="clip-path:url(#SVGID_00000109715059917067286530000018101260051199281831_);fill:#5557A3;" points="0.338,188.29 
			0.338,125.864 62.772,188.29 		"/>
		<polygon style="clip-path:url(#SVGID_00000109715059917067286530000018101260051199281831_);fill:#A6AAD9;" points="
			62.932,250.907 62.932,188.45 125.381,250.907 		"/>
		<polygon style="clip-path:url(#SVGID_00000109715059917067286530000018101260051199281831_);fill:#FFD8A1;" points="
			62.932,188.45 125.381,188.45 125.381,250.907 		"/>
		
			<rect x="83.382" y="272.34" transform="matrix(-1 -1.224647e-16 1.224647e-16 -1 186.802 564.7184)" style="clip-path:url(#SVGID_00000109715059917067286530000018101260051199281831_);fill:#A6AAD9;" width="20.038" height="20.038"/>
		
			<circle style="clip-path:url(#SVGID_00000109715059917067286530000018101260051199281831_);fill:#D3D6F0;" cx="31.41" cy="157.05" r="18.466"/>
		
			<circle style="clip-path:url(#SVGID_00000109715059917067286530000018101260051199281831_);fill:#D3D6F0;" cx="95.233" cy="157.05" r="18.466"/>
		
			<circle style="clip-path:url(#SVGID_00000109715059917067286530000018101260051199281831_);fill:#D3D6F0;" cx="92.245" cy="409.009" r="18.466"/>
		
			<rect x="62.873" y="313.323" transform="matrix(-1 -1.224647e-16 1.224647e-16 -1 188.1991 689.0995)" style="clip-path:url(#SVGID_00000109715059917067286530000018101260051199281831_);fill:#A6AAD9;" width="62.453" height="62.453"/>
		<path style="clip-path:url(#SVGID_00000109715059917067286530000018101260051199281831_);fill:#A6AAD9;" d="M75.899,344.539
			c0-5.027,2.008-9.591,5.271-12.914l26.11,26.11c-3.324,3.263-7.887,5.271-12.914,5.271
			C84.167,363.005,75.899,354.738,75.899,344.539z"/>
		
			<rect x="687.955" y="62.425" transform="matrix(-1 -1.224647e-16 1.224647e-16 -1 1438.4341 187.3753)" style="clip-path:url(#SVGID_00000109715059917067286530000018101260051199281831_);fill:#A6AAD9;" width="62.525" height="62.525"/>
		
			<rect x="687.955" y="437.66" transform="matrix(-1 -1.224647e-16 1.224647e-16 -1 1438.4341 937.8443)" style="clip-path:url(#SVGID_00000109715059917067286530000018101260051199281831_);fill:#A6AAD9;" width="62.525" height="62.525"/>
		
			<ellipse transform="matrix(0.7071 -0.7071 0.7071 0.7071 -66.6099 558.7358)" style="clip-path:url(#SVGID_00000109715059917067286530000018101260051199281831_);fill:#D3D6F0;" cx="641.149" cy="359.773" rx="15.69" ry="15.69"/>
		
			<circle style="clip-path:url(#SVGID_00000109715059917067286530000018101260051199281831_);fill:#D3D6F0;" cx="672.326" cy="328.22" r="15.69"/>
		
			<circle style="clip-path:url(#SVGID_00000109715059917067286530000018101260051199281831_);fill:#D3D6F0;" cx="641.149" cy="328.22" r="15.69"/>
		
			<circle style="clip-path:url(#SVGID_00000109715059917067286530000018101260051199281831_);fill:#FFD8A1;" cx="541.139" cy="328.22" r="15.69"/>
		<g style="clip-path:url(#SVGID_00000109715059917067286530000018101260051199281831_);">
			<circle style="fill:#FFD8A1;" cx="672.326" cy="46.359" r="15.69"/>
			<circle style="fill:#A6AAD9;" cx="641.149" cy="46.359" r="15.69"/>
			
				<ellipse transform="matrix(0.2438 -0.9698 0.9698 0.2438 494.0804 663.2424)" style="fill:#D3D6F0;" cx="672.326" cy="14.805" rx="15.69" ry="15.69"/>
			
				<ellipse transform="matrix(0.2438 -0.9698 0.9698 0.2438 470.5027 633.0052)" style="fill:#D3D6F0;" cx="641.149" cy="14.805" rx="15.69" ry="15.69"/>
		</g>
		
			<ellipse transform="matrix(0.7071 -0.7071 0.7071 0.7071 31.3968 544.1693)" style="clip-path:url(#SVGID_00000109715059917067286530000018101260051199281831_);fill:#A6AAD9;" cx="672.569" cy="234.185" rx="15.69" ry="15.69"/>
		
			<circle style="clip-path:url(#SVGID_00000109715059917067286530000018101260051199281831_);fill:#D3D6F0;" cx="672.569" cy="202.632" r="15.69"/>
		
			<circle style="clip-path:url(#SVGID_00000109715059917067286530000018101260051199281831_);fill:#FFD8A1;" cx="641.391" cy="202.632" r="15.69"/>
		
			<circle style="clip-path:url(#SVGID_00000109715059917067286530000018101260051199281831_);fill:#5557A3;" cx="719.063" cy="93.674" r="8.939"/>
		<path style="clip-path:url(#SVGID_00000109715059917067286530000018101260051199281831_);fill:#5557A3;" d="M636.375,293.349
			c0-2.641,2.141-4.781,4.781-4.781c2.641,0,4.781,2.141,4.781,4.781c0,2.641-2.141,4.781-4.781,4.781
			C638.515,298.13,636.375,295.99,636.375,293.349z"/>
		
			<circle style="clip-path:url(#SVGID_00000109715059917067286530000018101260051199281831_);fill:#5557A3;" cx="588.686" cy="31.522" r="4.781"/>
		<path style="clip-path:url(#SVGID_00000109715059917067286530000018101260051199281831_);fill:#5557A3;" d="M153.609,158.7
			c0-2.641,2.141-4.781,4.781-4.781c2.641,0,4.781,2.141,4.781,4.781c0,2.641-2.141,4.781-4.781,4.781
			C155.75,163.481,153.609,161.34,153.609,158.7z"/>
		
			<circle style="clip-path:url(#SVGID_00000109715059917067286530000018101260051199281831_);fill:#FFD8A1;" cx="719.186" cy="281.365" r="31.04"/>
		
			<ellipse transform="matrix(0.1586 -0.9873 0.9873 0.1586 87.0186 297.5768)" style="clip-path:url(#SVGID_00000109715059917067286530000018101260051199281831_);fill:#FFD8A1;" cx="218.114" cy="97.73" rx="31.04" ry="31.04"/>
		<polygon style="clip-path:url(#SVGID_00000109715059917067286530000018101260051199281831_);fill:#D3D6F0;" points="
			687.834,124.704 687.834,124.673 750.354,124.673 750.354,187.202 750.339,187.202 		"/>
		<polygon style="clip-path:url(#SVGID_00000109715059917067286530000018101260051199281831_);fill:#A6AAD9;" points="
			561.346,313.124 561.346,313.094 623.866,313.094 623.866,375.622 623.851,375.622 		"/>
		<polygon style="clip-path:url(#SVGID_00000109715059917067286530000018101260051199281831_);fill:#A6AAD9;" points="
			624.4,376.178 624.4,376.148 686.921,376.148 686.921,438.676 686.905,438.676 		"/>
		<polygon style="clip-path:url(#SVGID_00000109715059917067286530000018101260051199281831_);fill:#FFD8A1;" points="
			625.302,62.374 625.302,62.343 687.822,62.343 687.822,124.872 687.807,124.872 		"/>
		<polygon style="clip-path:url(#SVGID_00000109715059917067286530000018101260051199281831_);fill:#5557A3;" points="
			625.44,187.202 625.44,124.704 687.945,187.202 		"/>
		<polygon style="clip-path:url(#SVGID_00000109715059917067286530000018101260051199281831_);fill:#A6AAD9;" points="
			688.105,187.362 750.626,187.362 750.626,249.89 		"/>
		
			<rect x="708.578" y="271.348" transform="matrix(-1 -1.224647e-16 1.224647e-16 -1 1437.2178 562.7572)" style="clip-path:url(#SVGID_00000109715059917067286530000018101260051199281831_);fill:#5557A3;" width="20.061" height="20.061"/>
		
			<ellipse transform="matrix(0.7071 -0.7071 0.7071 0.7071 82.0421 509.9186)" style="clip-path:url(#SVGID_00000109715059917067286530000018101260051199281831_);fill:#D3D6F0;" cx="656.547" cy="155.926" rx="18.487" ry="18.487"/>
		
			<circle style="clip-path:url(#SVGID_00000109715059917067286530000018101260051199281831_);fill:#D3D6F0;" cx="656.547" cy="469.056" r="18.487"/>
		
			<ellipse transform="matrix(0.7071 -0.7071 0.7071 0.7071 100.7567 555.0995)" style="clip-path:url(#SVGID_00000109715059917067286530000018101260051199281831_);fill:#FFD8A1;" cx="720.443" cy="155.926" rx="18.487" ry="18.487"/>
		
			<ellipse transform="matrix(0.1602 -0.9871 0.9871 0.1602 573.3591 733.9898)" style="clip-path:url(#SVGID_00000109715059917067286530000018101260051199281831_);fill:#5557A3;" cx="718.03" cy="30.043" rx="18.487" ry="18.487"/>
		
			<rect x="688.046" y="312.378" transform="matrix(-1 -1.224647e-16 1.224647e-16 -1 1438.6166 687.2809)" style="clip-path:url(#SVGID_00000109715059917067286530000018101260051199281831_);fill:#5557A3;" width="62.525" height="62.525"/>
		<path style="clip-path:url(#SVGID_00000109715059917067286530000018101260051199281831_);fill:#FFD8A1;" d="M706.364,330.7
			c3.35-3.434,8.033-5.558,13.211-5.558c10.211,0,18.487,8.277,18.487,18.487c0,5.178-2.124,9.86-5.558,13.211L706.364,330.7z"/>
		<path style="clip-path:url(#SVGID_00000109715059917067286530000018101260051199281831_);fill:#A6AAD9;" d="M701.087,343.629
			c0-5.033,2.01-9.602,5.277-12.929l26.14,26.14c-3.327,3.267-7.896,5.277-12.929,5.277
			C709.364,362.117,701.087,353.84,701.087,343.629z"/>
		<path style="clip-path:url(#SVGID_00000109715059917067286530000018101260051199281831_);fill:#D3D6F0;" d="M559.85,313.536
			h64.348V186.781l0,0c-35.539,0-64.348,28.81-64.348,64.348V313.536z"/>
		<path style="clip-path:url(#SVGID_00000109715059917067286530000018101260051199281831_);fill:#D3D6F0;" d="M189.462,375.339
			h-63.306v124.703l0,0c34.963,0,63.306-28.343,63.306-63.306V375.339z"/>
	</g>
</g>
</svg>
