<?xml version="1.0" encoding="utf-8"?>
<!-- Generator: Adobe Illustrator 27.5.0, SVG Export Plug-In . SVG Version: 6.00 Build 0)  -->
<svg version="1.1" xmlns="http://www.w3.org/2000/svg" xmlns:xlink="http://www.w3.org/1999/xlink" x="0px" y="0px"
	 viewBox="0 0 752 423" style="enable-background:new 0 0 752 423;" xml:space="preserve">
<g id="BACKGROUND">
	
		<rect x="164.5" y="-164.5" transform="matrix(6.123234e-17 -1 1 6.123234e-17 164.5 587.5)" style="fill:#F7F8EE;" width="423" height="752"/>
</g>
<g id="PRINT">
	<g>
		<defs>
			
				<rect id="SVGID_1_" x="164.5" y="-164.5" transform="matrix(6.123234e-17 -1 1 6.123234e-17 164.5 587.5)" width="423" height="752"/>
		</defs>
		<clipPath id="SVGID_00000018237266912563062290000014491882360085259686_">
			<use xlink:href="#SVGID_1_"  style="overflow:visible;"/>
		</clipPath>
		<g style="clip-path:url(#SVGID_00000018237266912563062290000014491882360085259686_);">
			<path style="fill:#2D4D47;" d="M579.423,381.528c-1.243-30.172-9.884-57.181-24.985-78.108
				c-17.012-23.575-42.76-38.954-68.874-41.14c-36.592-3.063-76.468,20.229-101.612,59.335
				c-11.738,18.254-20.099,38.246-24.851,59.42l-2.927-0.656c4.829-21.519,13.326-41.835,25.254-60.387
				c11.938-18.565,27.439-34.109,44.831-44.95c19.184-11.959,39.777-17.405,59.555-15.752c26.976,2.258,53.539,18.099,71.058,42.374
				c15.446,21.405,24.281,48.979,25.55,79.74L579.423,381.528z"/>
		</g>
		<path style="clip-path:url(#SVGID_00000018237266912563062290000014491882360085259686_);fill:#EEBC31;" d="M-90.255,199.343
			c7.721-22.658,38.152-26.055,51.184-5.975c17.312,26.675,42.73,49.079,68.793,67.956c40.357,29.228,85.039,54.195,116.464,92.866
			c10.887,13.398,19.772,29.144,25.58,45.724c23.344,66.646-41.598,131.138-107.503,105.779c-0.721-0.277-1.441-0.564-2.161-0.86
			c-34.548-14.208-63.022-40.253-86.865-69.009c-35.595-42.93-62.827-94.048-70.909-149.227
			C-100.428,254.137-99.286,225.845-90.255,199.343z"/>
		<path style="clip-path:url(#SVGID_00000018237266912563062290000014491882360085259686_);fill:#2D4D47;" d="M84.276,254.213
			c-9.729-12.108-23.451-20.214-35.237-30.329c-11.787-10.116-22.286-23.94-21.605-39.458c0.356-8.107,3.738-15.722,6.064-23.497
			c2.326-7.775,3.524-16.541-0.253-23.723c-2.307-4.385-6.212-7.672-10.028-10.833C15.863,120.281,9.212,101.759,0,106.355
			c-53.742,26.814-45.898,194.671-5.954,239.199c27.592,30.758,53.202-26.142,74.817-42.105c6.081-4.491,12.156-9.203,16.587-15.328
			c4.43-6.126,7.07-13.938,5.462-21.324C89.895,262.12,87.273,257.943,84.276,254.213z"/>
		<g style="clip-path:url(#SVGID_00000018237266912563062290000014491882360085259686_);">
			<path style="fill:#2D4D47;" d="M139.502,386.343c17.477,5.1,34.936,10.26,52.392,15.431c11.236,3.328,22.471,6.661,33.7,10.016
				l-0.054-0.794c-8.889-2.806-17.78-5.602-26.682-8.365c-17.486-5.429-34.995-10.777-52.523-16.068
				c-17.443-5.266-34.901-10.483-52.371-15.658c-9.668-2.864-19.359-5.646-29.059-8.396l-6.468,0.44
				c9.52,2.783,19.043,5.556,28.582,8.271C104.53,376.203,122.025,381.242,139.502,386.343z"/>
			<path style="fill:#2D4D47;" d="M97.978,360.256c5.241,1.759,10.48,3.524,15.721,5.283c25.008,8.397,50.024,16.772,75.024,25.192
				c12.09,4.072,24.181,8.142,36.269,12.217l-0.054-0.798c-8.94-3.021-17.875-6.053-26.817-9.068
				c-25.005-8.432-49.989-16.929-74.981-25.401c-7.485-2.537-14.971-5.07-22.455-7.61L97.978,360.256z"/>
			<path style="fill:#2D4D47;" d="M169.923,404.981c18.687,5.768,37.391,11.671,56.336,16.579l-0.099-1.451
				c-15.017-3.925-29.89-8.46-44.702-13.055c-31.287-9.707-62.607-19.304-94.018-28.603c-16.155-4.783-32.329-9.504-48.517-14.174
				l-4.466,0.304c13.703,3.95,27.4,7.921,41.08,11.952C107.058,385.82,138.525,395.29,169.923,404.981z"/>
		</g>
		<path style="clip-path:url(#SVGID_00000018237266912563062290000014491882360085259686_);fill:#C4D7E4;" d="M565.43-26.662
			c-33.762,29.609-74.884,52.024-100.591,88.844c-12.587,18.028-21.052,40.819-15.129,61.993
			c8.732,31.216,44.934,46.657,77.343,47.294c32.408,0.637,64.38-9.023,96.785-8.209c32.404,0.814,68.513,16.717,76.734,48.071
			c7.368,28.102-10.043,56.031-25.622,80.553c-1.759,2.769-3.51,5.613-5.215,8.518c-18.426,31.404,11.967,68.7,46.632,57.558
			c94.484-30.37,180.152-88.215,242.93-165.149c26.58-32.573,50.095-71.97,46.318-113.841
			c-7.11-78.819-102.147-120.143-129.527-194.395c-10.537-28.576-10.127-59.828-14.393-89.985
			c-4.265-30.157-15.051-62.026-40.451-78.832c-29.381-19.439-70.266-12.2-99.175,7.936
			c-42.464,29.578-55.403,66.185-69.052,112.474C637.493-111.193,606.692-62.848,565.43-26.662z"/>
		<path style="clip-path:url(#SVGID_00000018237266912563062290000014491882360085259686_);fill:#EEBC31;" d="M606.032,24.549
			c-10.776,7.486-22.003,14.957-29.483,25.737c-7.479,10.78-10.372,25.901-3.346,36.983c8.096,12.77,25.159,15.43,39.993,18.356
			c42.618,8.408,85.578,32.274,101.628,72.639c10.859,27.31,7.946,58.051,2.423,86.917c-5.523,28.865-13.523,57.702-12.32,87.067
			c1.204,29.364,13.699,60.35,39.459,74.498c17.781,9.766,39.616,10.176,59.152,4.713c19.537-5.463,37.125-16.322,53.538-28.244
			c24.827-18.034,48.996-41.101,54.64-71.263c4.329-23.134-2.984-46.741-11.11-68.83c-12.29-33.406-26.693-66.163-35.421-100.671
			c-8.728-34.509-11.525-71.523-0.489-105.365c16.956-51.999,63.666-89.339,84.521-139.901
			c11.072-26.843,13.322-60.428-5.434-82.595c-15.284-18.063-40.808-24.087-64.463-23.507c-26.917,0.66-60.996,8.494-82.108,26.364
			c-20.073,16.99-35.129,44.638-53.044,64.721C703.123-51.819,656.673-10.629,606.032,24.549z"/>
		<path style="clip-path:url(#SVGID_00000018237266912563062290000014491882360085259686_);fill:#288D94;" d="M168.758,457.779
			c53.286,5.655,105.708-17.817,149.589-48.573c43.88-30.756,82.086-69.081,126.29-99.369c24.097-16.51,50.457-30.759,79.214-35.883
			c28.757-5.124,60.331-0.119,82.887,18.44c31.33,25.779,38.751,73.062,25.699,111.477c-13.052,38.415-42.948,68.918-75.776,92.76
			c-64.301,46.699-153.915,15.519-232.881,24.451c-31.387,3.55-63.694,7.035-94.134-1.402
			C199.206,511.243,173.521,489.004,168.758,457.779z"/>
		<path style="clip-path:url(#SVGID_00000018237266912563062290000014491882360085259686_);fill:#F1F1F1;" d="M328.655,462.347
			c18.004-32.045,38.157-62.883,60.278-92.238c11.298-14.992,23.32-29.8,38.632-40.661c15.312-10.862,34.469-17.482,52.971-14.3
			c23.465,4.036,41.373,22.407,61.728,34.757c38.539,23.383,89.572,24.528,129.121,2.899c19.071,23.492,19.29,59.566,1.92,84.343
			c-13.84,19.741-36.592,30.908-58.363,41.266c-34.949,16.628-70.886,33.53-109.466,36.612
			C444.192,519.92,379.071,497.531,328.655,462.347z"/>
		<path style="clip-path:url(#SVGID_00000018237266912563062290000014491882360085259686_);fill:#C4D7E4;" d="M158.689,476.956
			c52.441-64.811,125.275-112.871,205.489-135.594C317.854,410.949,240.285,458.783,158.689,476.956z"/>
		<g style="clip-path:url(#SVGID_00000018237266912563062290000014491882360085259686_);">
			<g>
				<path style="fill:#C9872B;" d="M627.719,253.988c-7.355,25.721-14.741,51.433-22.034,77.172
					c-7.366,25.999-14.719,52.002-22.104,77.996c-5.796,20.397-11.591,40.794-17.388,61.191h1.127
					c4.87-17.097,9.74-34.193,14.609-51.29c7.402-25.99,14.83-51.971,22.251-77.956c7.421-25.984,14.77-51.988,22.129-77.989
					c0.812-2.871,1.624-5.741,2.436-8.612C628.4,254.333,628.061,254.158,627.719,253.988z"/>
				<path style="fill:#C9872B;" d="M619.906,249.95c-7.574,24.037-15.022,48.112-22.316,72.236
					c-7.976,26.378-15.744,52.819-23.304,79.32c-6.533,22.9-12.879,45.853-19.1,68.84h2.088c5.211-19.5,10.495-38.981,15.93-58.42
					c7.42-26.538,15.049-53.018,22.885-79.437c7.836-26.417,15.881-52.777,24.212-79.043c0.299-0.941,0.603-1.881,0.902-2.823
					C620.769,250.399,620.338,250.175,619.906,249.95z"/>
			</g>
		</g>
		<g style="clip-path:url(#SVGID_00000018237266912563062290000014491882360085259686_);">
			<path style="fill:#2D4D47;" d="M445.516,330.062c-0.263-1.17-1.613-1.834-2.711-1.643c-1.142,0.199-2.092,1.254-2,2.461
				c0.294,3.863,0.693,7.706,1.109,11.557c0.194,1.797,1.675,3.156,3.544,2.83c0.819-0.142,1.45-0.541,1.932-1.217
				c0.598-0.84,0.64-1.657,0.451-2.641C447.11,337.614,446.365,333.832,445.516,330.062z"/>
			<path style="fill:#2D4D47;" d="M460.692,359.053c-0.113-0.563-0.68-1.148-1.166-1.405c-0.518-0.273-1.257-0.369-1.818-0.169
				c-0.581,0.207-1.134,0.591-1.405,1.166c-0.282,0.598-0.314,1.172-0.169,1.818c0.663,2.959,1.326,5.919,1.988,8.878
				c0.122,0.545,0.641,1.095,1.118,1.346c0.496,0.262,1.204,0.354,1.742,0.162c0.557-0.199,1.086-0.566,1.346-1.118
				c0.273-0.58,0.288-1.117,0.162-1.742C461.891,365.011,461.291,362.032,460.692,359.053z"/>
			<path style="fill:#2D4D47;" d="M477.445,350.171c-0.408-1.772-1.067-3.446-1.852-5.082c-0.29-0.605-1.125-1.1-1.75-1.237
				c-0.648-0.143-1.492-0.029-2.049,0.352c-0.598,0.408-1.11,1.015-1.237,1.751c-0.13,0.746,0.017,1.373,0.352,2.049
				c0.02,0.04,0.038,0.08,0.057,0.119c0.684,1.534,1.179,3.141,1.49,4.791c0.061,0.403,0.123,0.805,0.161,1.211
				c0.08,0.862,0.198,1.859,0.695,2.6c0.495,0.737,1.294,1.198,2.196,1.158c0.908-0.04,1.609-0.556,2.069-1.311
				c0.607-0.995,0.516-2.31,0.386-3.42C477.844,352.151,477.671,351.152,477.445,350.171z"/>
			<path style="fill:#2D4D47;" d="M475.892,333.636c0.156,0.527,0.573,1.018,1.057,1.273c0.469,0.247,1.139,0.335,1.648,0.153
				c0.526-0.188,1.027-0.536,1.273-1.057c0.242-0.514,0.334-1.095,0.153-1.648c-0.515-1.567-1.029-3.134-1.543-4.701
				c-0.169-0.514-0.539-0.976-1.021-1.23c-0.453-0.239-1.1-0.323-1.59-0.147c-0.509,0.181-0.993,0.517-1.23,1.02
				c-0.238,0.505-0.309,1.047-0.147,1.591C474.958,330.473,475.425,332.054,475.892,333.636z"/>
			<path style="fill:#2D4D47;" d="M497.349,335.418c-0.266-1.921-0.532-3.841-0.798-5.762c-0.022-0.459-0.154-0.885-0.395-1.277
				c-0.144-0.176-0.288-0.352-0.433-0.529c-0.582-0.597-1.459-0.792-2.251-0.654c-0.711,0.124-1.26,0.47-1.678,1.058
				c-0.233,0.273-0.382,0.59-0.448,0.951c-0.098,0.453-0.079,0.901,0.057,1.344c0.347,1.906,0.694,3.813,1.041,5.719
				c0.087,0.323,0.245,0.601,0.472,0.836c0.191,0.279,0.443,0.493,0.754,0.642c0.513,0.242,1.035,0.33,1.597,0.233
				c0.516-0.09,1.053-0.325,1.404-0.734C497.087,336.762,497.44,336.077,497.349,335.418z"/>
			<path style="fill:#2D4D47;" d="M431.811,361.264c0.11-1.468-0.069-2.948-0.443-4.37c-0.3-1.138-1.548-1.802-2.656-1.609
				c-1.062,0.185-2.127,1.242-1.958,2.41c0.105,0.729,0.125,1.463,0.088,2.197c-0.111,1.012-0.33,2.028-0.651,2.994
				c-0.108,0.266-0.211,0.533-0.339,0.79c-0.298,0.605-0.384,1.32-0.183,1.97c0.187,0.606,0.681,1.247,1.263,1.522
				c1.256,0.592,2.83,0.208,3.492-1.081c0.386-0.752,0.69-1.55,0.948-2.354C431.634,362.914,431.747,362.121,431.811,361.264z"/>
			<path style="fill:#2D4D47;" d="M415.242,383.194c0.017-2.262-0.161-4.534-0.263-6.793c-0.026-0.587-0.305-1.198-0.734-1.601
				c-0.423-0.397-1.114-0.683-1.702-0.632c-1.242,0.109-2.313,1.131-2.232,2.436c0.139,2.259,0.204,4.537,0.462,6.785
				c0.067,0.584,0.263,1.12,0.703,1.533c0.405,0.38,1.066,0.654,1.63,0.605C414.362,385.416,415.232,384.447,415.242,383.194z"/>
			<path style="fill:#2D4D47;" d="M397.047,380.184c-0.056-0.536-0.246-1.036-0.648-1.413c-0.373-0.35-0.983-0.603-1.502-0.557
				c-0.523,0.046-1.063,0.239-1.414,0.648c-0.346,0.404-0.621,0.955-0.557,1.503c0.163,1.392,0.326,2.785,0.49,4.177
				c0.063,0.533,0.239,1.019,0.64,1.396c0.369,0.346,0.972,0.596,1.485,0.551c0.516-0.045,1.049-0.236,1.397-0.641
				c0.345-0.401,0.608-0.94,0.55-1.485C397.341,382.97,397.194,381.577,397.047,380.184z"/>
			<path style="fill:#2D4D47;" d="M392.157,406.152c-0.165-0.525-0.558-1.002-1.045-1.259c-0.464-0.245-1.126-0.331-1.629-0.151
				c-0.52,0.186-1.015,0.53-1.258,1.045c-0.243,0.515-0.32,1.074-0.151,1.628c0.479,1.578,0.959,3.155,1.439,4.733
				c0.161,0.529,0.569,1.016,1.057,1.273c0.469,0.247,1.139,0.334,1.648,0.153c0.526-0.188,1.027-0.536,1.273-1.057
				c0.244-0.518,0.329-1.09,0.153-1.648C393.147,409.297,392.652,407.725,392.157,406.152z"/>
			<path style="fill:#2D4D47;" d="M429.223,400.113c-3.592-1.894-6.543,3.686-2.944,5.583
				C429.871,407.591,432.821,402.01,429.223,400.113z"/>
			<path style="fill:#2D4D47;" d="M442.39,383.729c-0.415-1.56-1.13-3.088-2.077-4.396c-0.379-0.524-0.865-0.928-1.514-1.07
				c-0.561-0.123-1.29-0.025-1.772,0.305c-0.517,0.353-0.96,0.878-1.07,1.514c-0.101,0.581-0.064,1.283,0.304,1.772
				c0.456,0.605,0.831,1.261,1.162,1.941c0.299,0.717,0.53,1.459,0.687,2.221c0.121,0.885,0.126,1.762,0.15,2.657
				c0.03,1.128,0.972,2.041,2.066,2.136c1.102,0.095,2.168-0.637,2.403-1.749C443.094,387.334,442.838,385.413,442.39,383.729z"/>
			<path style="fill:#2D4D47;" d="M446.812,406.752c-3.593-1.895-6.543,3.686-2.944,5.583
				C447.46,414.23,450.41,408.65,446.812,406.752z"/>
			<path style="fill:#2D4D47;" d="M411.912,415.443c-1.528-0.806-2.782,1.567-1.252,2.374
				C412.187,418.623,413.442,416.25,411.912,415.443z"/>
			<path style="fill:#2D4D47;" d="M406.447,400.81c-1.414-0.746-2.575,1.451-1.159,2.198
				C406.702,403.754,407.863,401.557,406.447,400.81z"/>
		</g>
		<g style="clip-path:url(#SVGID_00000018237266912563062290000014491882360085259686_);">
			<g>
				<g>
					<path style="fill:#BDCED5;" d="M86.964,236.557c0-0.664,0-1.329,0-1.993c0-4.809-7.475-4.818-7.475,0c0,0.664,0,1.329,0,1.993
						C79.49,241.366,86.964,241.374,86.964,236.557L86.964,236.557z"/>
				</g>
				<g>
					<path style="fill:#BDCED5;" d="M78.991,246.523c0-0.664,0-1.329,0-1.993c0-4.81-7.475-4.818-7.475,0c0,0.664,0,1.329,0,1.993
						C71.516,251.333,78.991,251.34,78.991,246.523L78.991,246.523z"/>
				</g>
				<g>
					<path style="fill:#BDCED5;" d="M87.213,254.247c4.81,0,4.818-7.475,0-7.475C82.404,246.772,82.396,254.247,87.213,254.247
						L87.213,254.247z"/>
				</g>
				<g>
					<path style="fill:#BDCED5;" d="M101.166,228.833c-0.664,0-1.329,0-1.993,0c-4.81,0-4.818,7.475,0,7.475
						c0.664,0,1.329,0,1.993,0C105.976,236.307,105.984,228.833,101.166,228.833L101.166,228.833z"/>
				</g>
				<g>
					<path style="fill:#BDCED5;" d="M75.254,216.375c0.664,0,1.329,0,1.993,0c4.81,0,4.818-7.475,0-7.475c-0.664,0-1.329,0-1.993,0
						C70.444,208.9,70.436,216.375,75.254,216.375L75.254,216.375z"/>
				</g>
				<g>
					<path style="fill:#BDCED5;" d="M105.152,240.792c-1.329,0-2.658,0-3.986,0c-4.81,0-4.818,7.475,0,7.475
						c1.329,0,2.658,0,3.986,0C109.962,248.267,109.97,240.792,105.152,240.792L105.152,240.792z"/>
				</g>
				<g>
					<path style="fill:#BDCED5;" d="M65.537,268.449c0,0.664,0,1.329,0,1.993c0,4.81,7.475,4.818,7.475,0c0-0.664,0-1.329,0-1.993
						C73.011,263.639,65.537,263.631,65.537,268.449L65.537,268.449z"/>
				</g>
				<g>
					<path style="fill:#BDCED5;" d="M53.328,254.247c4.81,0,4.817-7.475,0-7.475C48.518,246.772,48.51,254.247,53.328,254.247
						L53.328,254.247z"/>
				</g>
				<g>
					<path style="fill:#BDCED5;" d="M87.863,273.085c0.664-0.664,1.329-1.329,1.993-1.993c3.406-3.406-1.878-8.693-5.285-5.285
						c-0.664,0.664-1.329,1.329-1.993,1.993C79.172,271.205,84.455,276.492,87.863,273.085L87.863,273.085z"/>
				</g>
				<g>
					<path style="fill:#BDCED5;" d="M53.577,272.435c0,0.664,0,1.329,0,1.993c0,4.81,7.475,4.818,7.475,0c0-0.664,0-1.329,0-1.993
						C61.052,267.626,53.577,267.617,53.577,272.435L53.577,272.435z"/>
				</g>
				<g>
					<path style="fill:#BDCED5;" d="M63.045,290.375c0-0.664,0-1.329,0-1.993c0-4.81-7.475-4.818-7.475,0c0,0.664,0,1.329,0,1.993
						C55.57,295.184,63.045,295.192,63.045,290.375L63.045,290.375z"/>
				</g>
				<g>
					<path style="fill:#BDCED5;" d="M79.24,294.112c4.81,0,4.818-7.475,0-7.475C74.431,286.637,74.423,294.112,79.24,294.112
						L79.24,294.112z"/>
				</g>
				<g>
					<path style="fill:#BDCED5;" d="M37.382,284.146c4.81,0,4.818-7.475,0-7.475C32.572,276.671,32.564,284.146,37.382,284.146
						L37.382,284.146z"/>
				</g>
				<g>
					<path style="fill:#BDCED5;" d="M69.274,242.287c4.81,0,4.818-7.475,0-7.475C64.464,234.813,64.456,242.287,69.274,242.287
						L69.274,242.287z"/>
				</g>
				<g>
					<path style="fill:#BDCED5;" d="M43.362,232.321c4.81,0,4.818-7.475,0-7.475C38.552,224.846,38.544,232.321,43.362,232.321
						L43.362,232.321z"/>
				</g>
				<g>
					<path style="fill:#BDCED5;" d="M19.442,276.172c4.81,0,4.818-7.475,0-7.475C14.633,268.698,14.625,276.172,19.442,276.172
						L19.442,276.172z"/>
				</g>
				<g>
					<path style="fill:#BDCED5;" d="M39.375,306.071c4.81,0,4.818-7.475,0-7.475C34.565,298.597,34.558,306.071,39.375,306.071
						L39.375,306.071z"/>
				</g>
				<g>
					<path style="fill:#BDCED5;" d="M105.152,274.179c4.81,0,4.818-7.475,0-7.475C100.343,266.705,100.335,274.179,105.152,274.179
						L105.152,274.179z"/>
				</g>
				<g>
					<path style="fill:#BDCED5;" d="M111.132,216.375c4.81,0,4.818-7.475,0-7.475C106.323,208.9,106.315,216.375,111.132,216.375
						L111.132,216.375z"/>
				</g>
				<g>
					<path style="fill:#BDCED5;" d="M131.065,288.132c4.81,0,4.818-7.475,0-7.475C126.255,280.657,126.247,288.132,131.065,288.132
						L131.065,288.132z"/>
				</g>
				<g>
					<path style="fill:#BDCED5;" d="M121.099,232.321c0.664,0,1.329,0,1.993,0c4.81,0,4.818-7.475,0-7.475c-0.664,0-1.329,0-1.993,0
						C116.289,224.846,116.281,232.321,121.099,232.321L121.099,232.321z"/>
				</g>
			</g>
		</g>
		<g style="clip-path:url(#SVGID_00000018237266912563062290000014491882360085259686_);">
			<g>
				<path style="fill:#2D4D47;" d="M551.25,136.725c0-0.664,0-1.329,0-1.993c0-4.81-7.475-4.818-7.475,0c0,0.664,0,1.329,0,1.993
					C543.775,141.535,551.25,141.543,551.25,136.725L551.25,136.725z"/>
			</g>
			<g>
				<path style="fill:#2D4D47;" d="M543.277,146.691c0-0.664,0-1.329,0-1.993c0-4.81-7.475-4.818-7.475,0c0,0.664,0,1.329,0,1.993
					C535.802,151.501,543.277,151.509,543.277,146.691L543.277,146.691z"/>
			</g>
			<g>
				<path style="fill:#2D4D47;" d="M551.499,154.415c4.81,0,4.818-7.475,0-7.475C546.69,146.941,546.681,154.415,551.499,154.415
					L551.499,154.415z"/>
			</g>
			<g>
				<path style="fill:#2D4D47;" d="M565.452,129.001c-0.664,0-1.329,0-1.993,0c-4.81,0-4.818,7.475,0,7.475c0.664,0,1.329,0,1.993,0
					C570.261,136.476,570.269,129.001,565.452,129.001L565.452,129.001z"/>
			</g>
			<g>
				<path style="fill:#2D4D47;" d="M539.54,116.543c0.664,0,1.329,0,1.993,0c4.81,0,4.818-7.474,0-7.474c-0.664,0-1.329,0-1.993,0
					C534.73,109.069,534.722,116.543,539.54,116.543L539.54,116.543z"/>
			</g>
			<g>
				<path style="fill:#2D4D47;" d="M569.438,140.961c-1.329,0-2.658,0-3.987,0c-4.809,0-4.818,7.475,0,7.475
					c1.329,0,2.658,0,3.987,0C574.248,148.435,574.256,140.961,569.438,140.961L569.438,140.961z"/>
			</g>
			<g>
				<path style="fill:#2D4D47;" d="M529.822,168.617c0,0.664,0,1.329,0,1.993c0,4.81,7.475,4.818,7.475,0c0-0.664,0-1.329,0-1.993
					C537.297,163.808,529.822,163.8,529.822,168.617L529.822,168.617z"/>
			</g>
			<g>
				<path style="fill:#2D4D47;" d="M517.614,154.415c4.81,0,4.817-7.475,0-7.475C512.804,146.941,512.796,154.415,517.614,154.415
					L517.614,154.415z"/>
			</g>
			<g>
				<path style="fill:#2D4D47;" d="M552.149,173.253c0.664-0.664,1.329-1.329,1.993-1.993c3.406-3.406-1.878-8.693-5.285-5.285
					c-0.664,0.664-1.329,1.329-1.993,1.993C543.457,171.373,548.741,176.66,552.149,173.253L552.149,173.253z"/>
			</g>
			<g>
				<path style="fill:#2D4D47;" d="M517.863,172.604c0,0.664,0,1.329,0,1.993c0,4.81,7.475,4.818,7.475,0c0-0.664,0-1.329,0-1.993
					C525.337,167.794,517.863,167.786,517.863,172.604L517.863,172.604z"/>
			</g>
			<g>
				<path style="fill:#2D4D47;" d="M527.331,190.543c0-0.664,0-1.329,0-1.993c0-4.81-7.475-4.818-7.475,0c0,0.664,0,1.329,0,1.993
					C519.856,195.353,527.331,195.361,527.331,190.543L527.331,190.543z"/>
			</g>
			<g>
				<path style="fill:#2D4D47;" d="M543.526,194.28c4.81,0,4.818-7.475,0-7.475C538.716,186.806,538.708,194.28,543.526,194.28
					L543.526,194.28z"/>
			</g>
			<g>
				<path style="fill:#2D4D47;" d="M501.668,184.314c4.81,0,4.818-7.475,0-7.475C496.858,176.839,496.85,184.314,501.668,184.314
					L501.668,184.314z"/>
			</g>
			<g>
				<path style="fill:#2D4D47;" d="M533.56,142.456c4.81,0,4.818-7.475,0-7.475C528.75,134.981,528.742,142.456,533.56,142.456
					L533.56,142.456z"/>
			</g>
			<g>
				<path style="fill:#2D4D47;" d="M507.647,132.49c4.81,0,4.818-7.475,0-7.475C502.838,125.015,502.83,132.49,507.647,132.49
					L507.647,132.49z"/>
			</g>
			<g>
				<path style="fill:#2D4D47;" d="M483.728,176.341c4.81,0,4.818-7.475,0-7.475C478.919,168.866,478.911,176.341,483.728,176.341
					L483.728,176.341z"/>
			</g>
			<g>
				<path style="fill:#2D4D47;" d="M503.661,206.24c4.81,0,4.818-7.475,0-7.475C498.851,198.765,498.843,206.24,503.661,206.24
					L503.661,206.24z"/>
			</g>
			<g>
				<path style="fill:#2D4D47;" d="M569.438,174.348c4.81,0,4.818-7.475,0-7.475C564.629,166.873,564.621,174.348,569.438,174.348
					L569.438,174.348z"/>
			</g>
			<g>
				<path style="fill:#2D4D47;" d="M575.418,116.543c4.81,0,4.818-7.474,0-7.474C570.608,109.069,570.6,116.543,575.418,116.543
					L575.418,116.543z"/>
			</g>
			<g>
				<path style="fill:#2D4D47;" d="M595.351,188.301c4.81,0,4.818-7.475,0-7.475C590.541,180.826,590.533,188.301,595.351,188.301
					L595.351,188.301z"/>
			</g>
			<g>
				<path style="fill:#2D4D47;" d="M585.384,132.49c0.664,0,1.329,0,1.993,0c4.81,0,4.818-7.475,0-7.475c-0.664,0-1.329,0-1.993,0
					C580.575,125.015,580.567,132.49,585.384,132.49L585.384,132.49z"/>
			</g>
		</g>
		<path style="clip-path:url(#SVGID_00000018237266912563062290000014491882360085259686_);fill:#C9872B;" d="M696.048,229.94
			c-0.752,8.738-10.563,15.329-19.133,13.464c-8.57-1.865-14.42-11.739-12.014-20.174c2.406-8.434,12.498-13.738,20.834-11.01
			C685.734,212.221,697.314,215.22,696.048,229.94z"/>
		<g style="clip-path:url(#SVGID_00000018237266912563062290000014491882360085259686_);">
			<path style="fill:#2D4D47;" d="M630.533-53.603c-8.336,22.939-8.862,46.401-1.526,67.85
				c8.264,24.163,27.152,45.624,50.523,57.408c32.748,16.512,76.803,14.687,112.255-4.637c16.549-9.02,30.534-20.647,41.566-34.557
				l2.49,1.627c-11.211,14.137-25.423,25.952-42.241,35.12c-16.831,9.174-35.997,14.713-55.425,16.017
				c-21.431,1.439-42.114-2.518-59.815-11.441c-24.142-12.173-43.636-34.294-52.147-59.175c-7.504-21.939-6.979-45.897,1.519-69.285
				L630.533-53.603z"/>
		</g>
		<path style="clip-path:url(#SVGID_00000018237266912563062290000014491882360085259686_);fill:#EEBC31;" d="M239.621,93.601
			c-1.01,14.555,5.169,27.846,21.76,30.511c10.094,1.621,20.441-3.181,27.566-10.513c9.629-9.908,16.978-25.491,16.279-39.467
			c-0.611-12.215-10.614-20.221-22.297-22.748C259.401,46.296,241.161,71.417,239.621,93.601z"/>
		<g style="clip-path:url(#SVGID_00000018237266912563062290000014491882360085259686_);">
			<g>
				<path style="fill:#C9872B;" d="M309.081,61.623c0.002-0.001,0.002-0.001,0.002-0.001c5.391-2.032,10.996-2.442,16.661-1.217
					c13.472,2.913,22.547,12.225,23.121,23.721c0.661,13.195-6,29.37-16.573,40.249c-3.965,4.081-8.726,7.243-13.767,9.144
					c-4.982,1.879-9.932,2.442-14.715,1.673c-15.38-2.469-23.844-14.289-22.642-31.619
					C282.444,85.178,294.446,67.143,309.081,61.623z M317.784,131.558c4.756-1.793,9.251-4.782,13.002-8.643
					c10.194-10.487,16.616-26.032,15.985-38.684c-0.64-12.769-11.511-19.621-21.471-21.775c-5.264-1.138-10.469-0.758-15.477,1.129
					c-13.919,5.248-25.339,22.502-26.565,40.136c-1.118,16.131,6.688,27.122,20.882,29.401
					C308.559,133.832,313.149,133.306,317.784,131.558z"/>
			</g>
		</g>
		<path style="clip-path:url(#SVGID_00000018237266912563062290000014491882360085259686_);fill:#288D94;" d="M281.055-64.049
			C269.39-29.192,255.388,4.882,239.174,37.87c-8.281,16.848-17.308,33.65-30.307,47.194
			c-12.999,13.544-30.572,23.646-49.342,23.995c-23.805,0.443-44.845-14.237-67.158-22.544
			C50.123,70.787-0.217,79.248-34.999,107.921C-58.144,88.429-65.135,53.039-52.727,25.44c9.886-21.989,30.136-37.231,49.574-51.494
			C28.05-48.951,60.173-72.301,97.487-82.575C156.76-98.895,224.927-89.136,281.055-64.049z"/>
		<g style="clip-path:url(#SVGID_00000018237266912563062290000014491882360085259686_);">
			<path style="fill:#C9872B;" d="M211.796-47.637c0.002,0,0.002,0,0.004,0c18.642-1.984,34.947-0.448,45.909,4.325
				c14.064,6.122,24.481,18.058,29.334,33.61c5.515,17.671,3.08,38.098-6.353,53.312c-11.108,17.912-27.379,32.475-40.313,43.161
				c-36.853,30.449-95.426,68.304-165.172,75.727c-3.471,0.369-6.983,0.664-10.439,0.874c-23.696,1.442-42.314-1.615-56.918-9.35
				c-15.622-8.274-30.41-25.812-28.237-46.341c2.082-19.654,19.884-37.645,47.617-48.127c7.126-2.693,14.581-4.965,21.791-7.162
				c15.17-4.623,30.857-9.402,43.969-18.316c12.455-8.469,22.168-20.401,31.56-31.939c9.812-12.053,19.958-24.517,33.305-33.188
				C170.164-39.05,190.836-45.406,211.796-47.637z M74.982,160.411c69.226-7.368,127.426-44.993,164.06-75.258
				c12.809-10.584,28.917-24.996,39.865-42.65c9.123-14.711,11.473-34.475,6.134-51.58c-4.67-14.961-14.674-26.436-28.17-32.312
				c-10.633-4.63-26.561-6.108-44.849-4.162c-20.655,2.198-40.973,8.428-53.026,16.259c-13.071,8.493-23.112,20.826-32.821,32.753
				c-9.487,11.656-19.298,23.708-32.009,32.35c-13.373,9.092-29.214,13.919-44.533,18.587c-7.178,2.188-14.601,4.449-21.664,7.118
				c-26.977,10.195-44.273,27.535-46.27,46.384c-2.072,19.555,12.134,36.323,27.131,44.267c14.255,7.548,32.51,10.528,55.808,9.109
				C68.062,161.07,71.544,160.777,74.982,160.411z"/>
		</g>
		<path style="clip-path:url(#SVGID_00000018237266912563062290000014491882360085259686_);fill:#C9872B;" d="M10.925,120.953
			c15.484,16.751,39.026,25.954,61.68,23.29c22.655-2.664,43.712-17.45,53.151-38.216c4.459-9.809,6.374-20.618,6.909-31.379
			c1.093-21.978-4.677-46.123-22.258-59.356C94.705,3.473,73.264,2.958,53.797,5.66C27.101,9.364-2.101,21.192-11.262,46.539
			c-6.423,17.77-1.18,37.52,5.556,55.173c6.683,17.515,18.047,36.881,36.721,38.529"/>
	</g>
</g>
</svg>
