<svg xmlns="http://www.w3.org/2000/svg" version="1.1" xmlns:xlink="http://www.w3.org/1999/xlink" xmlns:svgjs="http://svgjs.dev/svgjs" width="1440" height="560" preserveAspectRatio="none" viewBox="0 0 1440 560"><g mask="url(&quot;#SvgjsMask1000&quot;)" fill="none"><rect width="1440" height="560" x="0" y="0" fill="#1e3266"></rect><path d="M1464 560L0 560 L0 300.34Q58.94 239.27, 120 298.21Q174.68 232.88, 240 287.56Q315.12 242.68, 360 317.8Q408.96 294.76, 432 343.73Q504.83 296.56, 552 369.4Q581.72 279.12, 672 308.83Q720.93 285.76, 744 334.7Q796.55 267.25, 864 319.8Q906.94 242.75, 984 285.69Q1084.43 266.12, 1104 366.55Q1114.33 304.88, 1176 315.2Q1194.44 261.64, 1248 280.08Q1295.27 255.35, 1320 302.61Q1382.53 293.14, 1392 355.67Q1421.04 312.71, 1464 341.75z" fill="#182f5d"></path><path d="M1464 560L0 560 L0 413.62Q29.04 370.66, 72 399.71Q107.83 315.54, 192 351.38Q263.85 303.23, 312 375.08Q356 347.08, 384 391.08Q464.75 351.83, 504 432.59Q530.99 387.58, 576 414.57Q627.98 394.55, 648 446.53Q674.51 353.04, 768 379.55Q794.51 334.06, 840 360.57Q870.92 319.49, 912 350.41Q987.04 305.45, 1032 380.49Q1061.33 337.81, 1104 367.14Q1180.18 323.32, 1224 399.5Q1274.52 330.01, 1344 380.53Q1398.18 314.71, 1464 368.9z" fill="#25467d"></path><path d="M1488 560L0 560 L0 450.27Q61.93 392.2, 120 454.13Q194.51 408.64, 240 483.15Q308.76 431.91, 360 500.67Q427.25 447.92, 480 515.18Q505.58 420.76, 600 446.34Q630.19 404.52, 672 434.71Q728.61 419.31, 744 475.92Q813.09 425, 864 494.09Q887.83 397.92, 984 421.75Q1064.37 382.12, 1104 462.48Q1188.13 426.61, 1224 510.73Q1241.31 456.04, 1296 473.35Q1315.04 420.39, 1368 439.43Q1421.34 372.77, 1488 426.11z" fill="#356cb1"></path><path d="M1512 560L0 560 L0 548.83Q25.38 502.21, 72 527.59Q96.49 480.08, 144 504.57Q172.97 461.54, 216 490.51Q270.96 473.47, 288 528.43Q336.67 505.1, 360 553.76Q372.47 494.23, 432 506.7Q504.85 459.55, 552 532.41Q594.73 503.13, 624 545.86Q639.4 489.26, 696 504.66Q748.96 437.63, 816 490.59Q884.85 487.43, 888 556.28Q961.56 509.84, 1008 583.4Q1025.62 481.02, 1128 498.64Q1200.51 451.15, 1248 523.66Q1308.73 512.39, 1320 573.12Q1342.16 475.28, 1440 497.44Q1486.88 472.32, 1512 519.2z" fill="white"></path></g><defs><mask id="SvgjsMask1000"><rect width="1440" height="560" fill="#ffffff"></rect></mask></defs></svg>