<?xml version="1.0" encoding="utf-8"?>
<!-- Generator: Adobe Illustrator 27.5.0, SVG Export Plug-In . SVG Version: 6.00 Build 0)  -->
<svg version="1.1" xmlns="http://www.w3.org/2000/svg" xmlns:xlink="http://www.w3.org/1999/xlink" x="0px" y="0px"
	 viewBox="0 0 750 500" style="enable-background:new 0 0 750 500;" xml:space="preserve">
<g id="background">
	<rect style="fill:#FAF5F1;" width="750" height="500"/>
</g>
<g id="objects">
	<path d="M750,405.213c-10.519,0.49-21.605-0.483-32.763-5.347c-23.238-10.129-37.057-35.173-61.607-42.349
		c-45.153-13.198-34.256,15.735-61.307,31.545c-22.694,13.263-40.237-1.357-64.402-2.193c-37.194-1.288-25.735,12.108-49.419,26.868
		c-43.257,26.959-111.627-23.652-129.584,43.792c-4.669,17.537-4.682,31.441-1.209,42.471H750V405.213z"/>
	<path style="fill:#3B8085;" d="M496.61,0c-4.16,12.92-12.39,22.6-28.43,35.23c-17.86,14.08-33.67,32.26-56.21,33.96
		c-0.25,0.03-0.49,0.05-0.74,0.06c-3.24,0.19-6.55,0.16-9.91-0.04c-18.92-1.07-39.48-7.2-58.67-6.99
		c-31.02,0.33-44.21-3.65-61.42-32.19c-4.07-6.75-10.17-18.2-13.83-30.03H496.61z"/>
	<path style="fill:#97BEBD;" d="M0,0v328.29c51.883,3.886,67.157-35.188,70.513-60.898c3.76-28.806-14.396-43.613,5.209-80.903
		c14.738-28.034,14.986-39.135,5.234-71.349c-12.709-41.986-9.469-66.387,35.287-53.955c38.108,10.586,60.786-3.707,91.036-21.171
		C248.351,16.302,353.304,70.153,346.968,0H0z"/>
	<path style="fill:#FFA381;" d="M750,0H522.278c-1.562,3.383-3.487,7.39-6.276,12.327c-12.725,22.528-32.947,49.854-16.581,78.114
		c16.941,29.253,48.75,24.795,77.201,30.409c51.866,10.234,48.36,54.202,89.356,76.218c36.06,19.365,64.336-7.724,84.022-46.837V0z"
		/>
	<path style="fill:#FFDDD1;" d="M750,272.517c-7.314-4.157-15.697-6.85-24.937-7.604c-39.154-3.193-62.966,23.517-71.52,58.801
		c-6.419,26.476,21.638,90.306,10.058,108.279c-20.613,31.993-34.434-20.447-61.661-22.729
		c-26.316-2.206-23.534,29.419-39.353,37.652c-24.759,12.885-44.466-28.296-82.63-10.539c-13.64,6.346-23.479,21.448-38.57,23.601
		c-39.776,5.676-76.764-33.041-119.166-28.122c-33.725,3.913-74.073,30.447-60.544,68.145H750V272.517z"/>
	<path style="fill:#FCB247;" d="M215.11,443.62c-21.69,17.17-33.96,30.74-37.04,56.38H0V385.9c13.51-0.41,27.62-3.68,42.52-10.22
		c20.36-8.94,38.45-25.46,62.36-16.74c13.91,5.07,13.57,15.03,29.35,17.32c33.1,4.81,95.96-44.52,117.13,8.82
		C263.76,416.32,234.33,428.4,215.11,443.62z"/>
	<g>
		<path d="M83.99,206.667c-0.46,9.191-0.1,17.43,0.24,25.406c1.16,27.111,1.99,46.697-32.2,65.519
			c-12.4,6.829-24.72,9.631-37.14,9.631c-4.94,0-9.9-0.441-14.89-1.254v-0.999c17.39,2.851,34.4,1.205,51.54-8.23
			c33.66-18.528,32.83-37.869,31.69-64.627c-0.34-7.995-0.7-16.264-0.24-25.494c0.97-19.439,7.6-32,14.01-44.149
			c8.87-16.803,17.25-32.676,7.01-64.372c-1.93-5.987-4.02-11.934-6.03-17.685C88.54,53.448,79.5,27.62,86.12,0h1.05
			c-6.66,27.473,2.35,53.212,11.76,80.088c2.01,5.761,4.1,11.718,6.03,17.705c10.37,32.098,1.9,48.137-7.07,65.127
			C91.53,174.971,84.95,187.444,83.99,206.667z"/>
	</g>
	<g>
		<path d="M750,228.61v1.53c-8.7,9.88-20.09,17.46-32.89,21.28c-5.95,1.78-11.87,2.65-17.65,2.65c-15.98,0-30.88-6.68-42.48-19.42
			c-17.23-18.91-11.59-39.26-5.61-60.79c4.76-17.13,9.67-34.85,3.63-53.33c-13.39-40.92-40.82-37.07-69.87-32.99
			c-15.24,2.14-30.99,4.35-44.99-0.11c-28.33-9.01-28.99-34.95-29.62-60.03c-0.24-9.58-0.48-18.96-2.1-27.4h0.95
			c1.68,8.62,1.91,18.05,2.15,27.37c0.62,24.73,1.27,50.31,28.92,59.11c13.78,4.39,29.42,2.19,44.55,0.07
			c29.47-4.14,57.31-8.05,70.96,33.67c6.14,18.77,1.18,36.63-3.62,53.9c-5.9,21.27-11.47,41.35,5.39,59.86
			c15.53,17.05,37.07,23.06,59.11,16.49C729.82,246.59,741.34,238.78,750,228.61z"/>
	</g>
	<g>
		<path d="M399.65,500h-1.28c-26.67-31.85-60.44-44.96-107.38-42.19c-44.43,2.62-56.09-5.84-81.63-24.36
			c-6.85-4.98-14.62-10.61-24.3-16.95c-44.71-29.25-78.59-11.8-121.57,16.04c-20.28,13.14-39.21,19.9-56.26,20.1
			c-2.46,0.03-4.87-0.08-7.23-0.34v-1.01c2.35,0.27,4.76,0.38,7.22,0.35c16.86-0.2,35.61-6.91,55.73-19.94
			c20.79-13.47,39.61-24.98,59.35-29.47c21.66-4.92,41.78-0.65,63.3,13.44c9.71,6.35,17.49,11.99,24.35,16.97
			c25.34,18.38,36.91,26.77,80.98,24.18C338.54,454.01,372.7,467.42,399.65,500z"/>
	</g>
	<g>
		<path d="M718.22,315.27c-14.05,16.29-8.76,44.34-3.65,71.46c5.56,29.49,11.31,59.98-7.5,76.09c-14.55,12.47-32.8,7.74-52.12,2.73
			c-15.02-3.89-30.55-7.91-44.4-3.28c-16.96,5.67-30.39,18.9-35.91,35.37c-0.26,0.79-0.51,1.57-0.73,2.36h-1.04
			c0.25-0.89,0.52-1.78,0.82-2.67c5.62-16.78,19.29-30.24,36.54-36.01c14.13-4.72,29.81-0.66,44.97,3.26
			c19.06,4.94,37.06,9.61,51.22-2.52c18.37-15.73,12.68-45.94,7.17-75.15c-5.16-27.35-10.49-55.64,3.87-72.29
			c6.82-7.9,17.55-12.7,32.54-14.5v1.01C735.33,302.9,724.85,307.58,718.22,315.27z"/>
	</g>
	<path style="fill:#FCB247;" d="M269.058,47.969c-12.107-6.566-28.66-6.726-40.382,0.762c-0.012,0.006-0.025,0.011-0.037,0.017
		c-3.466,1.74-6.609,4.041-10.111,5.721c-4.374,2.099-9.142,3.371-13.45,5.609c-5.776,3.001-8.764,9.207-8.519,15.591
		c0.242,6.293,3.422,12.77,8.908,16.095c7.662,4.645,17.045,3.365,25.361,1.805c8.563-1.606,16.972-1.324,25.616-1.13
		c8.408,0.188,16.235-2.044,21.144-9.331C285.664,71.118,281.626,54.784,269.058,47.969z"/>
	<path style="fill:#FFA381;" d="M452.228,426.186c-4.774-17.434-29.231-24.476-44.97-20.027c-2.406,0.68-4.325,1.776-5.807,3.151
		c-4.301,1.58-7.731,4.685-9.188,10.044c-4.883,17.965,14.421,30.487,29.614,32.257
		C436.959,453.366,457.292,444.681,452.228,426.186z"/>
	<path style="fill:#FFA381;" d="M552.193,409.958c-0.275-0.137-0.558-0.26-0.845-0.372c-3.268-1.783-7.364-2.003-10.66-0.112
		c-3.458,1.984-5.252,5.786-5.321,9.678c-0.098,5.571,2.626,11.39,7.014,14.78c7.445,5.752,19.304,1.609,19.278-8.521
		C561.644,419.594,557.441,412.572,552.193,409.958z"/>
	<path style="fill:#3B8085;" d="M167.272,325.725c-31.114-1.005-53.586-77.692-74.586-57.769
		c-6.574,9.135-7.602,37.154-4.301,51.599c2.35,10.28,14.008,21.864,22.448,27.285c15.252,9.796,38.666,14.362,56.171,2.751
		C174.918,344.342,196.847,326.681,167.272,325.725z"/>
	<path style="fill:#FFA381;" d="M151.192,93.446c-0.598-4.854-3.261-9.275-7.547-11.754c-1.527-0.883-3.235-1.452-4.934-1.918
		c-1.255-0.465-2.498-0.9-3.757-1.237c-2.149-1.017-4.575-1.128-6.752-0.438c-4.882,0.884-8.548,4.64-10.095,9.383
		c-3.289,10.083,4.751,18.334,14.168,20.136C141.677,109.417,152.563,104.581,151.192,93.446z"/>
	<path d="M176.953,100.969c-11.582,0-11.601,18,0,18C188.535,118.969,188.554,100.969,176.953,100.969z"/>
	<path d="M119.553,111.918c-3.861,0-3.867,6,0,6C123.414,117.918,123.42,111.918,119.553,111.918z"/>
	<path d="M298.994,67.908c-3.861,0-3.867,6,0,6C302.855,73.908,302.862,67.908,298.994,67.908z"/>
	<path d="M480.11,41.049c-11.582,0-11.601,18,0,18C491.692,59.049,491.711,41.049,480.11,41.049z"/>
	<path d="M451.62,62.829c-4.504,0-4.512,7,0,7C456.124,69.829,456.131,62.829,451.62,62.829z"/>
	<path d="M487.232,87.223c-2.574,0-2.578,4,0,4C489.806,91.223,489.81,87.223,487.232,87.223z"/>
	<path d="M630.7,182.947c-8.365,0-8.379,13,0,13C639.065,195.947,639.078,182.947,630.7,182.947z"/>
	<path d="M619.507,165.062c-2.574,0-2.578,4,0,4C622.081,169.062,622.085,165.062,619.507,165.062z"/>
	<path d="M590,144.203c-2.574,0-2.578,4,0,4C592.573,148.203,592.578,144.203,590,144.203z"/>
	<path d="M628.156,217.463c-2.574,0-2.578,4,0,4C630.73,221.463,630.734,217.463,628.156,217.463z"/>
	<path d="M643.927,229.673c-2.574,0-2.578,4,0,4C646.501,233.673,646.505,229.673,643.927,229.673z"/>
	<path d="M636.805,332.502c-7.078,0-7.09,11,0,11C643.883,343.502,643.894,332.502,636.805,332.502z"/>
	<path d="M595.087,369.606c-4.504,0-4.512,7,0,7C599.591,376.606,599.599,369.606,595.087,369.606z"/>
	<path d="M578.298,382.798c-1.93,0-1.934,3,0,3C580.229,385.798,580.232,382.798,578.298,382.798z"/>
	<path d="M463.321,394.622c-10.939,0-10.957,17,0,17C474.259,411.622,474.278,394.622,463.321,394.622z"/>
	<path d="M357.501,420.99c-4.504,0-4.512,7,0,7C362.005,427.99,362.012,420.99,357.501,420.99z"/>
	<path d="M379.886,412.315c-2.574,0-2.578,4,0,4C382.46,416.315,382.464,412.315,379.886,412.315z"/>
	<path d="M308.661,422.99c-1.93,0-1.934,3,0,3C310.591,425.99,310.594,422.99,308.661,422.99z"/>
	<path d="M215.63,481.135c-1.93,0-1.933,3,0,3C217.561,484.135,217.564,481.135,215.63,481.135z"/>
	<path d="M191.146,484.135c-1.93,0-1.934,3,0,3C193.077,487.135,193.08,484.135,191.146,484.135z"/>
	<path d="M217.57,453.988c-1.93,0-1.934,3,0,3C219.5,456.988,219.504,453.988,217.57,453.988z"/>
	<path d="M265.003,431.536c-10.939,0-10.957,17,0,17C275.942,448.536,275.96,431.536,265.003,431.536z"/>
	<path d="M256.792,416.315c-3.217,0-3.223,5,0,5C260.009,421.315,260.015,416.315,256.792,416.315z"/>
	<path d="M199.088,330.837c-9.652,0-9.668,15,0,15C208.739,345.837,208.755,330.837,199.088,330.837z"/>
	<path d="M165.246,309.241c-5.148,0-5.156,8,0,8C170.394,317.241,170.402,309.241,165.246,309.241z"/>
	<path d="M102.886,240.46c-9.008,0-9.023,14,0,14C111.895,254.46,111.91,240.46,102.886,240.46z"/>
	<path d="M123.8,261.049c-2.574,0-2.578,4,0,4C126.373,265.049,126.378,261.049,123.8,261.049z"/>
	<path d="M97.183,217.322c-2.574,0-2.578,4,0,4C99.756,221.322,99.761,217.322,97.183,217.322z"/>
	<path d="M111.373,192.987c-5.791,0-5.801,9,0,9C117.164,201.987,117.174,192.987,111.373,192.987z"/>
	<path d="M105.548,166.749c-2.574,0-2.578,4,0,4C108.122,170.749,108.126,166.749,105.548,166.749z"/>
	<path d="M188.567,61.894c-2.574,0-2.578,4,0,4C191.141,65.894,191.145,61.894,188.567,61.894z"/>
	<path d="M107.48,68.845c-2.574,0-2.578,4,0,4C110.054,72.845,110.058,68.845,107.48,68.845z"/>
	<path d="M741.335,253.615c-2.574,0-2.578,4,0,4C743.909,257.615,743.913,253.615,741.335,253.615z"/>
	<path d="M95.251,105.984c-2.574,0-2.578,4,0,4C97.824,109.984,97.829,105.984,95.251,105.984z"/>
	<path d="M71.459,305.288c-5.791,0-5.801,9,0,9C77.25,314.288,77.259,305.288,71.459,305.288z"/>
	<path d="M243.505,466.894c-5.791,0-5.801,9,0,9C249.296,475.894,249.305,466.894,243.505,466.894z"/>
	<path d="M79.389,336.336c-1.93,0-1.933,3,0,3C81.32,339.336,81.323,336.336,79.389,336.336z"/>
	<path d="M39.93,332.086c-1.93,0-1.934,3,0,3C41.86,335.086,41.863,332.086,39.93,332.086z"/>
	<path d="M16.557,363.654c-1.93,0-1.934,3,0,3C18.488,366.654,18.491,363.654,16.557,363.654z"/>
	<path d="M727.105,203.087c-9.008,0-9.023,14,0,14C736.113,217.087,736.128,203.087,727.105,203.087z"/>
	<path d="M716.063,231.432c-4.504,0-4.512,7,0,7C720.567,238.432,720.574,231.432,716.063,231.432z"/>
	<path d="M659.472,203.257c-2.574,0-2.578,4,0,4C662.046,207.257,662.05,203.257,659.472,203.257z"/>
	<path d="M678.106,211.848c-1.287,0-1.289,2,0,2C679.393,213.848,679.395,211.848,678.106,211.848z"/>
	<path d="M682.246,260.847c-1.287,0-1.289,2,0,2C683.533,262.847,683.535,260.847,682.246,260.847z"/>
	<path d="M51.865,50.611C53.564,36.776,59.97,15.827,69.34,0H0v224.885c11.391,1.813,23.594,1.385,32.359-14.022
		c15.141-26.618-12.713-56.38-4.902-85.186c3.68-13.573,17.786-20.52,22.087-32.991C54.512,78.281,50.031,65.534,51.865,50.611z"/>
	<path d="M750,0H549.321c-4.576,13.151-5.735,26.543-1.289,36.069c13.559,29.05,45.008,19.214,71.351,17.259
		c34.331-2.548,69.593-8.442,79.424,33.326c5.625,23.896-21.012,57.428,13.737,68.743c16.107,5.245,28.265-2.272,37.455-16.813V0z"
		/>
	<g>
		<path d="M357.26,16.378c-1.132-2.043-5.106-1.545-5.315,1.462c-0.164,2.363-0.026,4.96,1.023,7.121
			c1.316,2.71,4.537,3.858,7.275,2.5c4.979-2.469,0.708-7.861-1.772-10.361C358.091,16.719,357.678,16.496,357.26,16.378z"/>
		<path d="M371.747,11.026c-1.158-0.374-2.086-0.004-2.677,0.692c-1.385,0.333-2.565,1.575-2.114,3.352
			c0.595,2.348,2.188,5.058,3.945,6.712c2.592,2.44,6.024,1.014,8.341-1.093c0.943-0.858,0.992-2.295,0.456-3.367
			C378.175,14.273,374.923,12.052,371.747,11.026z"/>
		<path d="M374.64,3.87c-0.99,0.58-2.16,0.69-3.25,0.38c-1.63-0.45-2.7-1.8-3.83-2.95c-0.37-0.38-0.61-0.83-0.72-1.3h9.18
			C376.57,1.4,376.12,3.02,374.64,3.87z"/>
		<path d="M398.62,6.06c-3.66,3.75-9.97-0.37-11.87-4.12c-0.35-0.69-0.4-1.35-0.25-1.94h11.92C399.83,1.8,400.46,4.18,398.62,6.06z"
			/>
		<path d="M417.95,9.49c-1.36,0.01-2.56-0.41-3.66-1.06c-1.53-0.13-3.05-0.53-3.91-1.95c-0.51-0.85-0.37-1.88-0.8-2.69
			c-0.69-1.32-0.31-3.03,1-3.79h3.74c0.88,0.4,1.72,0.99,2.45,1.54c1.44,1.1,3.45,2.57,3.89,4.44
			C421.08,7.74,419.79,9.48,417.95,9.49z"/>
		<path d="M428.907,10.924c-1.132-0.096-2.271,0.139-3.38,0.351c-1.444,0.276-2.427,2.043-2.001,3.423
			c0.366,1.185,1.292,1.902,2.403,2.034c0.307,0.111,0.639,0.162,0.98,0.16c0.327,0.185,0.639,0.39,0.984,0.545
			c1.708,0.767,3.346,0.553,4.761-0.69c0.847-0.744,1.121-2.415,0.456-3.367C432.072,11.894,430.719,11.078,428.907,10.924z"/>
		<path d="M417.318,25.302c-2.337-2.244-4.873-2.748-7.953-1.843c-2.365,0.695-2.452,3.444-1.166,4.794
			c0.073,0.519,0.309,1.04,0.766,1.517c1.771,1.848,2.394,4.727,4.858,5.941c2.681,1.321,6.883-0.635,7.088-3.747
			C421.077,29.429,419.033,26.949,417.318,25.302z"/>
		<path d="M374.234,29.427c-1.463-0.513-2.556,0.198-3.059,1.269c-0.826,0.79-1.237,2.022-0.587,3.325
			c1.253,2.511,1.958,5.339,3.905,7.502c2.288,2.543,5.944,2.734,8.222,0.043C387.095,36.392,378.33,30.864,374.234,29.427z"/>
		<path d="M357.367,39.094c1.141,1.15,1.599,3.365,2.528,4.873c1.891,3.07,6.771,0.307,4.877-2.769
			c-1.244-2.019-1.719-4.334-3.44-6.068C358.789,32.569,354.822,36.53,357.367,39.094z"/>
		<path d="M379.379,52.093c-0.612-0.602-1.412-0.756-2.175-0.593c-1.97,0.272-3.257,2.839-1.995,4.459
			c1.12,2.337,2.134,4.885,4.055,6.691c2.589,2.435,5.823,1.995,8.309-0.317c0.938-0.872,0.993-2.284,0.456-3.367
			C386.381,55.648,382.559,53.775,379.379,52.093z"/>
		<path d="M398.133,44.081c-0.543-0.537-1.147-0.769-1.74-0.799c-1.179-0.532-2.643-0.336-3.426,1.148
			c-3.027,5.738,3.931,11.897,9.525,10.945c1.849-0.315,2.516-2.623,1.727-4.096C402.706,48.455,400.382,46.307,398.133,44.081z"/>
		<path d="M415.884,46.957c-2.163-0.683-3.526,1.204-3.388,2.972c-0.131,0.913,0.201,1.851,1.215,2.44
			c0.19,0.278,0.372,0.562,0.553,0.845c0.615,0.96,1.224,1.912,1.938,2.805c1.509,1.888,4.174,3.112,6.218,1.164
			C426.89,52.921,419.511,48.103,415.884,46.957z"/>
		<path d="M433.539,43.973c-0.535-0.169-1.022-0.18-1.449-0.075c-2.208-0.126-4.258,2.754-2.239,4.769
			c1.144,1.142,1.962,2.565,3.176,3.655c1.917,1.722,4.387,2.436,6.489,0.57c0.674-0.598,1.045-1.83,0.73-2.693
			C439.094,47.044,436.718,44.978,433.539,43.973z"/>
		<path d="M428.99,22.116c-1.37-0.642-3.032-0.336-3.823,1.054c-0.166,0.291-0.269,0.622-0.316,0.965
			c-0.573,0.971-0.619,2.231,0.399,3.272c1.728,1.766,3.238,3.858,5.269,5.297c1.929,1.366,4.816,1.143,5.539-1.48
			C437.282,26.782,432.323,23.678,428.99,22.116z"/>
		<path d="M404.124,62.15c-1.315-0.839-2.578-0.402-3.344,0.52c-1.318,0.647-2.192,2.177-1.225,3.8
			c2.01,3.374,6.645,10.7,11.21,6.089C415.17,68.109,407.065,64.026,404.124,62.15z"/>
		<path d="M392.792,15.361c-1.147-0.732-2.249-0.351-2.917,0.454c-1.15,0.565-1.913,1.899-1.069,3.315
			c1.754,2.944,5.798,9.336,9.781,5.313C402.429,20.561,395.358,16.998,392.792,15.361z"/>
	</g>
	<g>
		<path d="M131.773,434.857c2.338-1.16,1.983-5.624-1.364-6.009c-2.63-0.303-5.537-0.281-8.004,0.783
			c-3.092,1.333-4.538,4.87-3.16,7.996c2.505,5.684,8.742,1.189,11.659-1.454C131.351,435.768,131.62,435.318,131.773,434.857z"/>
		<path d="M137.016,451.304c0.477-1.274,0.11-2.329-0.637-3.024c-0.302-1.564-1.628-2.943-3.636-2.53
			c-2.652,0.546-5.759,2.187-7.695,4.066c-2.856,2.771-1.437,6.675,0.799,9.369c0.91,1.097,2.512,1.223,3.736,0.68
			C133.065,458.317,135.709,454.798,137.016,451.304z"/>
		<path d="M151.339,452.604c0.327-0.283,0.654-0.565,0.977-0.854c1.223-1.092,1.389-3.237,0.201-4.427
			c-1.212-1.213-3.116-1.371-4.427-0.201c-1.348,1.205-2.903,2.324-3.493,4.125c-0.395,1.206-0.33,2.517,0.26,3.652
			c1.139,2.19,3.813,2.531,5.605,0.939C151.342,455.057,151.662,453.731,151.339,452.604z"/>
		<path d="M149.328,480.512c2.539-2.585,3.18-5.548,2.775-9.109c-0.135-1.186-1.163-2.057-2.298-2.354
			c-0.845-0.778-2.072-1.137-3.407-0.533c-4.277,1.936-9.197,8.775-5.195,13.051C143.681,484.213,147.171,482.709,149.328,480.512z"
			/>
		<path d="M164.553,488.391c1.264-1.583,2.732-3.795,2.592-5.913c-0.074-1.119-0.57-2.146-1.423-2.742
			c-1.046-1.208-2.912-1.767-4.483-0.439c-2.709,2.29-7.015,6.78-5.654,10.724c0.585,1.695,1.873,2.665,3.721,2.407
			C161.496,492.124,163.263,490.007,164.553,488.391z"/>
		<path d="M146.84,500h-9.68c0.17-0.37,0.38-0.72,0.6-1.06c0.22-1.71,0.75-3.38,2.38-4.26c0.98-0.54,2.12-0.33,3.05-0.76
			c1.52-0.71,3.44-0.19,4.21,1.37C148.21,496.93,147.72,498.55,146.84,500z"/>
		<path d="M120.06,500h-13.28c-0.1-1.04,0.06-2.08,0.54-2.96c1.48-2.69,4.73-3.24,6.88-5.13c0.56-0.48,1.15-0.72,1.74-0.78
			c1.57-1.36,4.63-1.13,5.29,1.55C121.92,495.5,121.6,497.87,120.06,500z"/>
		<path d="M116.344,453.149c0.647-1.607-0.092-2.864-1.262-3.48c-0.841-0.963-2.195-1.484-3.682-0.824
			c-2.867,1.272-6.061,1.916-8.575,3.981c-2.955,2.426-3.353,6.499-0.465,9.178C107.915,467.158,114.531,457.651,116.344,453.149z"
			/>
		<path d="M106.403,433.826c-1.342,1.216-3.838,1.615-5.569,2.576c-3.523,1.956-0.685,7.545,2.845,5.586
			c2.317-1.287,4.926-1.7,6.95-3.534C113.617,435.745,109.395,431.114,106.403,433.826z"/>
		<path d="M90.774,457.748c0.703-0.653,0.916-1.538,0.772-2.399c-0.204-2.213-3.005-3.781-4.878-2.454
			c-2.666,1.133-5.562,2.136-7.676,4.189c-2.85,2.768-2.522,6.401-0.067,9.294c0.926,1.091,2.5,1.225,3.736,0.68
			C86.45,465.386,88.735,461.213,90.774,457.748z"/>
		<path d="M98.771,479.094c0.627-0.579,0.917-1.242,0.981-1.903c0.654-1.29,0.509-2.935-1.109-3.884
			c-6.254-3.671-13.484,3.788-12.703,10.081c0.258,2.08,2.801,2.943,4.487,2.136C93.655,483.979,96.172,481.493,98.771,479.094z"/>
		<path d="M94.66,498.77c-0.14,0.38-0.32,0.8-0.53,1.23h-11c0.4-0.5,0.88-0.95,1.4-1.33c1.03-0.76,2.12-1.39,3.23-2.03
			c0.32-0.18,0.65-0.37,0.97-0.57c0.71-1.1,1.77-1.43,2.78-1.23C93.5,494.77,95.53,496.39,94.66,498.77z"/>
		<path d="M78.292,484.869c1.003-1.426,0.579-2.858-0.412-3.76c-0.656-1.504-2.32-2.558-4.181-1.56
			c-3.869,2.074-12.285,6.879-7.366,12.209C71.078,496.901,76.048,488.058,78.292,484.869z"/>
		<path d="M131.11,474.584c0.875-1.244,0.505-2.494-0.359-3.28c-0.573-1.312-2.024-2.232-3.648-1.362
			c-3.376,1.809-10.718,6.002-6.427,10.652C124.817,485.082,129.153,477.366,131.11,474.584z"/>
	</g>
</g>
</svg>
